# xmcd CD database file
#
# Track frame offsets:
#	150
#	27022
#	46746
#	67120
#	78469
#	95826
#	110867
#	125862
#	136151
#
# Disc length: 2113 seconds
#
# Revision: 1
# Processed by: cddbd v1.5.1PL2 Copyright (c) Steve Scherf et al.
# Submitted via: CDex 1.51
#
DISCID=80083f09
DTITLE=José Magual Jr. - Tributo a Chano Pozo - Campanero
DYEAR=1900
DGENRE=Salsa
TTITLE0=Manteca 77
TTITLE1=Down to basic
TTITLE2=Cuero na' ma
TTITLE3=Sonando con Puerto Rico
TTITLE4=Guaguanco chano
TTITLE5=Sambala
TTITLE6=True venture theme
TTITLE7=Bomba caribe
TTITLE8=Campanero
EXTD=
EXTT0=
EXTT1=
EXTT2=
EXTT3=
EXTT4=
EXTT5=
EXTT6=
EXTT7=
EXTT8=
PLAYORDER=
